HIERARCHY
ROOT Hip
{
    OFFSET 0.0 0.0 0.0
    CHANNELS 6 Xposition Yposition Zposition Zrotation Xrotation Yrotation
    JOINT RightHip
    {
        OFFSET -11.743134170626057 0.0 0.0
        CHANNELS 3 Zrotation Xrotation Yrotation
        JOINT RightKnee
        {
            OFFSET 0.0 0.0 -41.105171352274766
            CHANNELS 3 Zrotation Xrotation Yrotation
            JOINT RightAnkle
            {
                OFFSET 0.0 0.0 -40.82174991574395
                CHANNELS 3 Zrotation Xrotation Yrotation
                End Site
                {
                    OFFSET 0.0 -16.328699966297584 0.0
                }
            }
        }
    }
    JOINT LeftHip
    {
        OFFSET 11.743134170626057 0.0 0.0
        CHANNELS 3 Zrotation Xrotation Yrotation
        JOINT LeftKnee
        {
            OFFSET 0.0 0.0 -41.105171352274766
            CHANNELS 3 Zrotation Xrotation Yrotation
            JOINT LeftAnkle
            {
                OFFSET 0.0 0.0 -40.82174991574395
                CHANNELS 3 Zrotation Xrotation Yrotation
                End Site
                {
                    OFFSET 0.0 -16.328699966297584 0.0
                }
            }
        }
    }
    JOINT Spine
    {
        OFFSET 0.0 0.0 21.48519989247739
        CHANNELS 3 Zrotation Xrotation Yrotation
        JOINT Thorax
        {
            OFFSET 0.0 0.0 21.566011890439988
            CHANNELS 3 Zrotation Xrotation Yrotation
            JOINT Neck
            {
                OFFSET 0.0 0.0 4.151720088021989
                CHANNELS 3 Zrotation Xrotation Yrotation
                JOINT Head
                {
                    OFFSET 0.0 0.0 16.520813322245417
                    CHANNELS 3 Zrotation Xrotation Yrotation
                    End Site
                    {
                        OFFSET -6.608325328898167 0.0 0.0
                    }
                }
            }
            JOINT LeftShoulder
            {
                OFFSET 13.582456303719063 0.0 0.0
                CHANNELS 3 Zrotation Xrotation Yrotation
                JOINT LeftElbow
                {
                    OFFSET 26.76553204145541 0.0 0.0
                    CHANNELS 3 Zrotation Xrotation Yrotation
                    JOINT LeftWrist
                    {
                        OFFSET 22.724705992289508 0.0 0.0
                        CHANNELS 3 Zrotation Xrotation Yrotation
                        End Site
                        {
                            OFFSET 9.089882396915804 0.0 0.0
                        }
                    }
                }
            }
            JOINT RightShoulder
            {
                OFFSET -13.582456303719063 0.0 0.0
                CHANNELS 3 Zrotation Xrotation Yrotation
                JOINT RightElbow
                {
                    OFFSET -26.76553204145541 0.0 0.0
                    CHANNELS 3 Zrotation Xrotation Yrotation
                    JOINT RightWrist
                    {
                        OFFSET -22.724705992289508 0.0 0.0
                        CHANNELS 3 Zrotation Xrotation Yrotation
                        End Site
                        {
                            OFFSET -9.089882396915804 0.0 0.0
                        }
                    }
                }
            }
            JOINT Nose
            {
                OFFSET 0.0 0.0 15.532346910793125
                CHANNELS 3 Zrotation Xrotation Yrotation
                End Site
                {
                    OFFSET -6.212938764317251 0.0 0.0
                }
            }
        }
    }
}
MOTION
Frames: 4
Frame Time: 0.03333333333333333
0.5155810733634615 -9.94515038359831 72.36996031379842 166.0895046316729 -83.06135656591869 -138.05857765286342 4.871513368384954 6.330639859146119 -7.189978488646106 12.07074234113829 21.558069493747706 -6.40836378776696 0.0 0.0 3.1805546814635168e-15 10.57614643136571 21.85675286386488 1.7535257053254694 8.653149340913465 10.995589868564736 -3.949576495424967 0.0 0.0 0.0 3.1655306210553305e-15 -0.10829028796942439 -1.589978904600942e-14 0.454287293057242 0.27722880581888576 -5.57167172143238 152.30702889298024 27.076485537993356 2.0226244878392707 0.0 0.0 1.5902773407317584e-15 -89.19724307582939 34.07256865834165 -34.97153714916151 -2.0276129520723322e-14 1.9056817708661897e-15 -88.05812700150977 3.975693351829395e-15 -1.1034765745125397e-31 -3.1805546814635164e-15 56.30503417990797 9.534535391837847 36.532695543200745 0.0 0.0 96.68001085739235 1.5902773407317584e-15 -1.1034765745125397e-32 -7.951386703658792e-16 0.0 0.0 0.0
0.5155780590780265 -9.945092240420642 72.37036744397811 166.08345929161968 -83.0592784773264 -138.06435132581245 4.869072856821124 6.327646224841472 -7.189533943052789 12.065808045774702 21.54998950233786 -6.403026192471606 -1.7655625192200634e-31 -6.361109362927035e-15 -3.1805546814635176e-15 10.578370552104436 21.860399084908245 1.7519710976111509 8.650925600417166 10.992674707538118 -3.948684193537831 0.0 -6.361109362927035e-15 0.0 -3.1805586107156223e-15 -0.10399446603246507 -2.8864306238767647e-18 0.45992452412213064 0.27952249202538143 -5.622522786588475 152.3235672989013 27.096632825328832 1.9746302098038027 0.0 0.0 3.1805546814635168e-15 -89.25342875156431 33.9722371160984 -34.91459002401482 -1.1724421625855557e-15 5.612677225814349e-15 -89.02196208853142 2.3854160110976376e-15 0.0 0.0 56.27799839349402 9.616948385701711 36.55820915658649 -2.4828309123328698e-14 7.916306367127407e-16 96.7364356126921 1.5902773407317584e-15 -1.1034765745125397e-32 -7.951386703658792e-16 0.0 0.0 0.0
0.5155782338192111 -9.945095611039637 72.37034384222855 166.05826148658215 -83.05571906692656 -138.07368046428934 4.867850141759834 6.327293834364899 -7.177497456681731 12.064122143255572 21.523080971785095 -6.3950723956586195 0.0 0.0 0.0 10.606615777889703 21.888368941786904 1.7275110204167976 8.6328411551452 10.970866143658853 -3.942078054225222 0.0 0.0 0.0 -1.3961217673591617e-18 -0.025150291663884668 -6.361109822553417e-15 0.47033080773733527 0.28961584134626683 -5.740563429342075 152.17036368494058 27.463184997204436 2.082457744951714 0.0 0.0 -1.5902773407317584e-15 -88.92552846976842 33.92772028963272 -36.63038719755443 1.1897013801987775e-15 -5.6090442048299525e-15 -88.66947444095767 7.951386703658794e-16 2.2069531490250793e-32 3.1805546814635176e-15 56.223256512527 9.731807041082652 36.677465387808475 0.0 0.0 96.85641748773567 -1.5902773407317584e-15 0.0 0.0 0.0 0.0 -3.1805546814635168e-15
0.5155297431404726 -9.944160264268447 72.37689332772807 166.7814070602293 -82.9630313023403 -137.68741481790954 4.891118988318053 6.2707341345118595 -7.241331754721963 11.974902803076432 21.7114079470974 -6.42838891431186 0.0 0.0 0.0 10.37282914127412 21.65117620707709 1.921408158692671 9.03076617408076 11.579044417582288 -4.197505425702453 0.0 0.0 0.0 6.36158247694684e-15 -0.01703812831652532 3.1815005930904277e-15 0.5785662719888609 0.2768271339380806 -5.484036665677297 152.24308988799373 27.39156180112578 1.9653255344471712 0.0 0.0 3.1805546814635168e-15 -88.7943884646544 33.91494589711484 -37.06916450025116 3.4452911597199337e-15 -3.3001222717892636e-15 -87.53424132757374 -2.3854160110976376e-15 0.0 0.0 56.2330599327401 9.76460758079055 36.731376646041056 4.755245185109551e-15 -4.225086455519035e-15 96.7571318978534 1.5902773407317588e-15 -2.2069531490250793e-32 -1.5902773407317588e-15 0.0 0.0 3.1805546814635168e-15
